{"title":"Deviation 2012 DVDRiP AC3 XViD - INSPiRAL","uid":7073194,"size":1524015717,"categoryP":"video","categoryS":"movies","magnet":"?xt=urn:btih:3c86c9b8915cc2314c22423c1b0f284d4853c7ab&amp;dn=Deviation+2012+DVDRiP+AC3+XViD+-+INSPiRAL&amp;tr=udp%3A%2F%2Ftracker.openbittorrent.com%3A80&amp;tr=udp%3A%2F%2Fopen.demonii.com%3A1337&amp;tr=udp%3A%2F%2Ftracker.coppersurfer.tk%3A6969&amp;tr=udp%3A%2F%2Fexodus.desync.com%3A6969","seeders":0,"leechers":1,"uploader":"TvTeam","files":5,"time":1330745247,"description":". \n &lt;a href=&quot;\nhttp://www.torrenting.com&quot; rel=&quot;nofollow&quot; target=&quot;_NEW&quot;&gt;\nhttp://www.torrenting.com&lt;/a&gt;          :     Once &amp; For all ;)\n\n\n               www . Torrenting . Com \n\n(((((((((((((= Enjoy No RAR releases =))))))))))))))))))))\n\n\n...................................NFO:....................................\n\n.[IMG]http://i.imgur.com/2mcr9.png[/IMG]\n\n \nTITLE: \n\nDeviation 2012 DVDRiP AC3 XViD - INSPiRAL\n\nIMDB: \n &lt;a href=&quot;\nhttp://www.imdb.com/title/tt1785353/&quot; rel=&quot;nofollow&quot; target=&quot;_NEW&quot;&gt;\nhttp://www.imdb.com/title/tt1785353/&lt;/a&gt;\n\n\nSOURCES:\n\nVIDEO - LEGEND SORS  THANKS\nAUDIO - LEGEND SORS  THANKS\nSUBS  - None Add\n\nSTATS:\n\nVideo\nID                               : 0\nFormat                           : MPEG-4 Visual\nFormat profile                   : Advanced Simple@L5\nFormat settings, BVOP            : 2\nFormat settings, QPel            : No\nFormat settings, GMC             : No warppoints\nFormat settings, Matrix          : Default (MPEG)\nMuxing mode                      : Packed bitstream\nCodec ID                         : XVID\nCodec ID/Hint                    : XviD\nDuration                         : 1h 26mn\nBit rate                         : 1 866 Kbps\nWidth                            : 720 pixels\nHeight                           : 304 pixels\nDisplay aspect ratio             : 2.35:1\nFrame rate                       : 25.000 fps\nColor space                      : YUV\nChroma subsampling               : 4:2:0\nBit depth                        : 8 bits\nScan type                        : Progressive\nCompression mode                 : Lossy\nBits/(Pixel*Frame)               : 0.341\nStream size                      : 1.12 GiB (80%)\nWriting library                  : XviD 64\n\nAudio\nID                               : 1\nFormat                           : AC-3\nFormat/Info                      : Audio Coding 3\nMode extension                   : CM (complete main)\nCodec ID                         : 2000\nDuration                         : 1h 26mn\nBit rate mode                    : Constant\nBit rate                         : 448 Kbps\nChannel(s)                       : 6 channels\nChannel positions                : Front: L C R, Side: L R, LFE\nSampling rate                    : 48.0 KHz\nBit depth                        : 16 bits\nCompression mode                 : Lossy\nStream size                      : 276 MiB (19%)\nAlignment                        : Aligned on interleaves\nInterleave, duration             : 40 ms (1.00 video frame)\nInterleave, preload duration     : 512 ms\n\n\nNOTES:\n\nStraight forward rip of the vobs we were sent......slightly tweaked the contrast,chroma and sharpness.Also had to crop and resize like\nyou normally have to due ,due too borders.\nAudio just stripped and remuxed.\n\nSCREENS:\n\n[IMG]http://i.imgur.com/eIylg.png[/IMG]\n[IMG]http://i.imgur.com/CsTKl.png[/IMG]\n[IMG]http://i.imgur.com/KEdvQ.png[/IMG]\n[IMG]http://i.imgur.com/bMsIl.png[/IMG]\n\n\nGREETZ: \n\nPast,Present and Future\n\n[IMG]http://i.imgur.com/2mcr9.png[/IMG]","torrent":{"xt":"urn:btih:3c86c9b8915cc2314c22423c1b0f284d4853c7ab","amp;dn":"Deviation+2012+DVDRiP+AC3+XViD+-+INSPiRAL","amp;tr":["udp%3A%2F%2Ftracker.openbittorrent.com%3A80","udp%3A%2F%2Fopen.demonii.com%3A1337","udp%3A%2F%2Ftracker.coppersurfer.tk%3A6969","udp%3A%2F%2Fexodus.desync.com%3A6969"],"infoHash":"3c86c9b8915cc2314c22423c1b0f284d4853c7ab","infoHashBuffer":{"type":"Buffer","data":[60,134,201,184,145,92,194,49,76,34,66,60,27,15,40,77,72,83,199,171]},"announce":[],"urlList":[]}}